<?xml version="1.0" encoding="UTF-8"?>
<!DOCTYPE svg PUBLIC "-//W3C//DTD SVG 1.1//EN" "http://www.w3.org/Graphics/SVG/1.1/DTD/svg11.dtd">
<svg xmlns="http://www.w3.org/2000/svg" version="1.1" width="27px" height="25px" style="shape-rendering:geometricPrecision; text-rendering:geometricPrecision; image-rendering:optimizeQuality; fill-rule:evenodd; clip-rule:evenodd" xmlns:xlink="http://www.w3.org/1999/xlink">
<g><path style="opacity:0.638" fill="#916d45" d="M 10.5,-0.5 C 12.1667,-0.5 13.8333,-0.5 15.5,-0.5C 18.5579,3.52461 22.2245,6.85794 26.5,9.5C 26.5,10.5 26.5,11.5 26.5,12.5C 25.5,12.5 24.5,12.5 23.5,12.5C 23.5,16.5 23.5,20.5 23.5,24.5C 16.5,24.5 9.5,24.5 2.5,24.5C 2.5,20.5 2.5,16.5 2.5,12.5C 1.5,12.5 0.5,12.5 -0.5,12.5C -0.5,11.5 -0.5,10.5 -0.5,9.5C 3.77547,6.85794 7.44214,3.52461 10.5,-0.5 Z M 12.5,6.5 C 19.7899,9.44924 22.7899,14.7826 21.5,22.5C 15.8333,22.5 10.1667,22.5 4.5,22.5C 4.33537,19.4816 4.50204,16.4816 5,13.5C 7.39587,10.9334 9.89587,8.60004 12.5,6.5 Z"/></g>
<g><path style="opacity:0.715" fill="#916d45" d="M 9.5,11.5 C 12.0003,12.1234 14.5003,12.4567 17,12.5C 18.1296,17.3534 16.2962,19.8534 11.5,20C 8.47428,17.7024 7.80762,14.8691 9.5,11.5 Z"/></g>
</svg>
