<?xml version="1.0" standalone="no"?>
<!DOCTYPE svg PUBLIC "-//W3C//DTD SVG 20010904//EN"
 "http://www.w3.org/TR/2001/REC-SVG-20010904/DTD/svg10.dtd">
<svg version="1.0" xmlns="http://www.w3.org/2000/svg"
 width="40.000000pt" height="40.000000pt" viewBox="0 0 40.000000 40.000000"
 preserveAspectRatio="xMidYMid meet">

<g transform="translate(0.000000,40.000000) scale(0.100000,-0.100000)"
fill="#000000" stroke="none">
<path d="M200 380 c0 -5 4 -10 9 -10 6 0 13 5 16 10 3 6 -1 10 -9 10 -9 0 -16
-4 -16 -10z"/>
<path d="M135 350 c-3 -4 1 -13 9 -19 10 -9 16 -8 26 4 7 8 11 15 9 16 -31 6
-40 6 -44 -1z"/>
<path d="M200 296 c0 -19 25 -27 39 -13 18 18 13 27 -14 27 -15 0 -25 -6 -25
-14z"/>
<path d="M100 253 c0 -5 23 -20 50 -35 l50 -28 50 28 c27 15 50 30 50 35 0 4
-45 7 -100 7 -55 0 -100 -3 -100 -7z"/>
<path d="M90 174 l0 -56 28 17 c68 44 66 40 22 69 -22 14 -42 26 -45 26 -3 0
-5 -25 -5 -56z"/>
<path d="M262 206 c-18 -13 -34 -27 -35 -30 -1 -4 17 -18 41 -32 l42 -25 0 55
c0 31 -3 56 -7 56 -5 -1 -23 -12 -41 -24z"/>
<path d="M140 127 l-55 -32 57 -3 c32 -2 84 -2 115 0 l58 3 -56 33 c-31 17
-58 32 -60 32 -2 0 -29 -15 -59 -33z"/>
</g>
</svg>
