<?xml version="1.0" encoding="UTF-8"?>
<!DOCTYPE svg PUBLIC "-//W3C//DTD SVG 1.1//EN" "http://www.w3.org/Graphics/SVG/1.1/DTD/svg11.dtd">
<svg xmlns="http://www.w3.org/2000/svg" version="1.1" width="32px" height="24px" style="shape-rendering:geometricPrecision; text-rendering:geometricPrecision; image-rendering:optimizeQuality; fill-rule:evenodd; clip-rule:evenodd" xmlns:xlink="http://www.w3.org/1999/xlink">
<g><path style="opacity:0.656" fill="#916d45" d="M 3.5,-0.5 C 11.5,-0.5 19.5,-0.5 27.5,-0.5C 28.8688,7.53583 28.5354,15.5358 26.5,23.5C 25.1667,23.5 23.8333,23.5 22.5,23.5C 21.4264,22.1154 20.0931,20.9487 18.5,20C 13.2497,19.8071 8.08299,19.3071 3,18.5C 2.20983,12.0853 2.37649,5.75199 3.5,-0.5 Z M 5.5,1.5 C 12.175,1.33375 18.8417,1.50042 25.5,2C 26.8023,6.78169 26.8023,11.615 25.5,16.5C 24.2807,17.2634 23.2807,18.2634 22.5,19.5C 21.6919,19.1924 21.0253,18.6924 20.5,18C 15.5,17.6667 10.5,17.3333 5.5,17C 4.19042,11.8338 4.19042,6.6671 5.5,1.5 Z"/></g>
<g><path style="opacity:0.477" fill="#916d45" d="M 6.5,3.5 C 12.5092,3.33385 18.5092,3.50051 24.5,4C 25.4797,7.34496 25.813,10.845 25.5,14.5C 18.8333,14.5 12.1667,14.5 5.5,14.5C 5.23506,10.6907 5.56839,7.02403 6.5,3.5 Z"/></g>
</svg>
