<?xml version="1.0" encoding="UTF-8"?>
<!DOCTYPE svg PUBLIC "-//W3C//DTD SVG 1.1//EN" "http://www.w3.org/Graphics/SVG/1.1/DTD/svg11.dtd">
<svg xmlns="http://www.w3.org/2000/svg" version="1.1" width="29px" height="26px" style="shape-rendering:geometricPrecision; text-rendering:geometricPrecision; image-rendering:optimizeQuality; fill-rule:evenodd; clip-rule:evenodd" xmlns:xlink="http://www.w3.org/1999/xlink">
<g><path style="opacity:0.514" fill="#916d45" d="M 28.5,11.5 C 28.5,12.1667 28.5,12.8333 28.5,13.5C 27.1667,13.8333 27.1667,14.1667 28.5,14.5C 28.5,16.1667 28.5,17.8333 28.5,19.5C 27.0001,21.1841 25.3334,22.8507 23.5,24.5C 21.7441,23.5931 19.9108,23.5931 18,24.5C 15.9046,23.6564 13.9046,22.6564 12,21.5C 11.8068,18.6468 11.1402,15.6468 10,12.5C 9.26131,13.5742 8.26131,14.2409 7,14.5C 5.18862,13.9221 3.35529,13.4221 1.5,13C 0.915201,11.6976 0.248534,10.531 -0.5,9.5C -0.5,7.5 -0.5,5.5 -0.5,3.5C 0.533646,2.31293 1.86698,1.4796 3.5,1C 5.65652,0.921905 7.65652,0.755239 9.5,0.5C 11.6908,2.71055 13.1908,5.37721 14,8.5C 16.9973,7.13365 20.164,6.46698 23.5,6.5C 23.1192,8.94185 23.7859,9.60851 25.5,8.5C 26.735,9.33977 27.735,10.3398 28.5,11.5 Z M 4.5,5.5 C 5.5,5.5 6.5,5.5 7.5,5.5C 7.5,6.5 7.5,7.5 7.5,8.5C 6.5,8.5 5.5,8.5 4.5,8.5C 4.5,7.5 4.5,6.5 4.5,5.5 Z M 15.5,12.5 C 15.5173,10.9719 16.184,10.4719 17.5,11C 16.9558,11.7172 16.2891,12.2172 15.5,12.5 Z M 23.5,11.5 C 26.0009,11.5109 26.1676,12.1776 24,13.5C 23.5357,12.9056 23.369,12.2389 23.5,11.5 Z M 17.5,13.5 C 18.8734,13.3433 20.2068,13.51 21.5,14C 22.474,16.702 21.474,18.0354 18.5,18C 17.8333,17.3333 17.1667,16.6667 16.5,16C 17.2524,15.3292 17.5858,14.4959 17.5,13.5 Z M 24.5,14.5 C 25.2674,15.172 25.9341,16.0053 26.5,17C 24.9387,17.1881 24.272,16.3547 24.5,14.5 Z"/></g>
</svg>
