<svg width="16" height="20" viewBox="0 0 16 20" fill="none" xmlns="http://www.w3.org/2000/svg">
<path d="M0.5 18.9931C0.5 13.2834 0.5 7.57367 0.5 1.86397C0.523148 1.84158 0.546296 1.81919 0.546296 1.7968C0.592593 1.68484 0.615741 1.59528 0.662037 1.50571C0.962963 1.16985 1.33333 0.945939 1.7963 0.878766C1.84259 0.878766 1.86574 0.856375 1.91204 0.833984C2.09722 0.833984 2.25926 0.833984 2.44444 0.833984C2.49074 0.856375 2.53704 0.878766 2.56018 0.878766C2.86111 0.901157 3.11574 1.0355 3.34722 1.19224C3.71759 1.46093 4.08796 1.70723 4.45833 1.97592C4.80556 2.22222 5.12963 2.46852 5.47685 2.69243C5.82407 2.93874 6.1713 3.20743 6.51852 3.45373C6.86574 3.70003 7.21296 3.96872 7.58333 4.21502C7.93056 4.46132 8.30093 4.73001 8.64815 4.97631C8.92593 5.17783 9.2037 5.37935 9.48148 5.58087C9.68981 5.73761 9.89815 5.89434 10.1065 6.02869C10.2222 6.11825 10.338 6.18543 10.4537 6.27499C10.6389 6.40933 10.8241 6.56607 11.0324 6.70042C11.2176 6.83476 11.4259 6.96911 11.6111 7.10346C11.7963 7.2378 12.0046 7.39454 12.1898 7.52888C12.3981 7.68562 12.6065 7.81997 12.7917 7.95431C13.0694 8.15583 13.3241 8.35735 13.6019 8.53648C13.8565 8.7156 14.1343 8.89473 14.3889 9.09625C14.6204 9.25299 14.8287 9.43211 15.0602 9.58885C15.3148 9.79037 15.4769 10.0367 15.5 10.3725C15.5 10.686 15.3611 10.9323 15.1296 11.1114C14.8981 11.313 14.6435 11.4921 14.3889 11.6712C14.0185 11.9399 13.625 12.2086 13.2546 12.4773C12.8611 12.7684 12.4444 13.0371 12.0509 13.3281C11.7731 13.5297 11.4954 13.7312 11.2176 13.9327C11.0093 14.0894 10.7778 14.2462 10.5694 14.4029C10.4537 14.4925 10.338 14.5596 10.2222 14.6492C10.037 14.7836 9.8287 14.9403 9.64352 15.097C9.45833 15.2314 9.27315 15.3657 9.08796 15.4777C8.90278 15.612 8.71759 15.7688 8.50926 15.9031C8.30093 16.0598 8.09259 16.1942 7.90741 16.3285C7.60648 16.5301 7.3287 16.754 7.02778 16.9555C6.84259 17.0898 6.65741 17.2018 6.49537 17.3361C6.31018 17.4705 6.125 17.6272 5.93981 17.7616C5.63889 17.9631 5.33796 18.1646 5.06019 18.3885C4.80556 18.5676 4.57407 18.7468 4.34259 18.9259C4.08796 19.105 3.81019 19.3065 3.55556 19.4857C3.39352 19.5976 3.20833 19.7096 3.02315 19.7991C2.83796 19.8887 2.62963 19.9335 2.4213 20.0007C2.23611 20.0007 2.07407 20.0007 1.88889 20.0007C1.7963 19.9783 1.68056 19.9335 1.58796 19.9111C1.125 19.7991 0.777778 19.5752 0.569444 19.1498C0.546296 19.1274 0.523148 19.0602 0.5 18.9931Z" fill="black"/>
</svg>
