<?xml version="1.0" standalone="no"?>
<!DOCTYPE svg PUBLIC "-//W3C//DTD SVG 20010904//EN"
 "http://www.w3.org/TR/2001/REC-SVG-20010904/DTD/svg10.dtd">
<svg version="1.0" xmlns="http://www.w3.org/2000/svg"
 width="29.000000pt" height="26.000000pt" viewBox="0 0 29.000000 26.000000"
 preserveAspectRatio="xMidYMid meet">

<g transform="translate(0.000000,26.000000) scale(0.100000,-0.100000)"
fill="#000000" stroke="none">
<path d="M118 229 c-7 -12 -27 -23 -42 -24 -37 -4 -46 -20 -32 -56 8 -22 7
-34 -2 -50 -16 -25 2 -53 28 -46 22 6 50 -10 50 -27 0 -30 34 -28 60 3 19 23
30 29 47 25 29 -8 41 18 23 52 -11 20 -11 28 0 49 11 20 11 27 0 40 -7 8 -21
13 -30 10 -18 -6 -50 18 -50 36 0 18 -38 9 -52 -12z m42 -3 c0 -18 45 -47 63
-40 8 3 18 1 22 -5 3 -6 0 -14 -8 -17 -15 -5 -18 -56 -4 -70 13 -13 7 -24 -14
-24 -29 0 -59 -18 -59 -35 0 -21 -8 -19 -41 14 -19 20 -35 27 -49 24 -20 -5
-28 11 -10 22 6 3 10 19 10 35 0 16 -4 32 -10 35 -16 10 -11 26 8 24 29 -5 60
10 65 31 6 23 27 27 27 6z"/>
<path d="M122 158 c-25 -25 -6 -68 30 -68 9 0 22 9 28 19 13 25 13 27 -6 45
-19 19 -36 20 -52 4z m48 -27 c0 -24 -25 -34 -40 -16 -15 18 -5 35 21 35 12 0
19 -7 19 -19z"/>
</g>
</svg>
