<?xml version="1.0" standalone="no"?>
<!DOCTYPE svg PUBLIC "-//W3C//DTD SVG 20010904//EN"
 "http://www.w3.org/TR/2001/REC-SVG-20010904/DTD/svg10.dtd">
<svg version="1.0" xmlns="http://www.w3.org/2000/svg"
 width="32.000000pt" height="24.000000pt" viewBox="0 0 32.000000 24.000000"
 preserveAspectRatio="xMidYMid meet">

<g transform="translate(0.000000,24.000000) scale(0.100000,-0.100000)"
fill="#000000" stroke="none">
<path d="M51 221 c-14 -25 -14 -136 -1 -162 7 -12 21 -19 39 -19 15 0 36 -9
46 -20 23 -25 37 -25 59 -1 10 11 32 21 50 23 l31 3 0 95 0 95 -107 3 c-98 2
-108 1 -117 -17z m207 0 c9 -5 12 -30 10 -87 l-3 -79 -32 -3 c-17 -2 -37 -10
-43 -18 -16 -18 -34 -18 -50 0 -6 8 -26 16 -43 18 l-32 3 -3 79 c-2 57 1 82
10 87 17 11 169 11 186 0z"/>
<path d="M110 180 c0 -5 14 -10 30 -10 17 0 30 5 30 10 0 6 -13 10 -30 10 -16
0 -30 -4 -30 -10z"/>
<path d="M110 140 c0 -5 25 -10 55 -10 30 0 55 5 55 10 0 6 -25 10 -55 10 -30
0 -55 -4 -55 -10z"/>
<path d="M138 93 c18 -2 45 -2 60 0 15 2 0 4 -33 4 -33 0 -45 -2 -27 -4z"/>
</g>
</svg>
