<?xml version="1.0" encoding="UTF-8"?>
<!DOCTYPE svg PUBLIC "-//W3C//DTD SVG 1.1//EN" "http://www.w3.org/Graphics/SVG/1.1/DTD/svg11.dtd">
<svg xmlns="http://www.w3.org/2000/svg" version="1.1" width="25px" height="26px" style="shape-rendering:geometricPrecision; text-rendering:geometricPrecision; image-rendering:optimizeQuality; fill-rule:evenodd; clip-rule:evenodd" xmlns:xlink="http://www.w3.org/1999/xlink">
<g><path style="opacity:0.563" fill="#916d45" d="M 7.5,-0.5 C 10.1667,-0.5 12.8333,-0.5 15.5,-0.5C 18.5327,1.40296 19.8661,4.2363 19.5,8C 19.1273,13.0791 17.1273,17.4124 13.5,21C 16.285,21.7258 16.9516,23.2258 15.5,25.5C 12.8333,25.5 10.1667,25.5 7.5,25.5C 6.04835,23.2258 6.71502,21.7258 9.5,21C 4.35418,16.2082 2.52085,10.3749 4,3.5C 4.68972,1.64977 5.85639,0.316435 7.5,-0.5 Z M 7.5,3.5 C 5.96043,11.4505 8.79377,13.4505 16,9.5C 16.4901,7.45464 16.3235,5.45464 15.5,3.5C 16.1174,3.61071 16.6174,3.94404 17,4.5C 17.4521,10.2759 15.6188,15.2759 11.5,19.5C 7.38124,15.2759 5.5479,10.2759 6,4.5C 6.38258,3.94404 6.88258,3.61071 7.5,3.5 Z M 10.5,4.5 C 13.9563,5.53625 14.2896,7.20291 11.5,9.5C 9.29572,8.21802 8.96238,6.55136 10.5,4.5 Z"/></g>
<g><path style="opacity:0.493" fill="#916d45" d="M 8.5,2.5 C 10.5,2.5 12.5,2.5 14.5,2.5C 14.5,3.16667 14.8333,3.5 15.5,3.5C 16.3235,5.45464 16.4901,7.45464 16,9.5C 8.79377,13.4505 5.96043,11.4505 7.5,3.5C 8.16667,3.5 8.5,3.16667 8.5,2.5 Z M 10.5,4.5 C 8.96238,6.55136 9.29572,8.21802 11.5,9.5C 14.2896,7.20291 13.9563,5.53625 10.5,4.5 Z"/></g>
</svg>
