<?xml version="1.0" encoding="UTF-8"?>
<!DOCTYPE svg PUBLIC "-//W3C//DTD SVG 1.1//EN" "http://www.w3.org/Graphics/SVG/1.1/DTD/svg11.dtd">
<svg xmlns="http://www.w3.org/2000/svg" version="1.1" width="28px" height="24px" style="shape-rendering:geometricPrecision; text-rendering:geometricPrecision; image-rendering:optimizeQuality; fill-rule:evenodd; clip-rule:evenodd" xmlns:xlink="http://www.w3.org/1999/xlink">
<g><path style="opacity:0.545" fill="#916d45" d="M 27.5,9.5 C 27.5,13.5 27.5,17.5 27.5,21.5C 18.1667,21.5 8.83333,21.5 -0.5,21.5C -0.5,15.8333 -0.5,10.1667 -0.5,4.5C 2.16667,4.5 4.83333,4.5 7.5,4.5C 7.5,3.5 7.5,2.5 7.5,1.5C 11.5,1.5 15.5,1.5 19.5,1.5C 19.5,4.16667 19.5,6.83333 19.5,9.5C 22.1667,9.5 24.8333,9.5 27.5,9.5 Z M 9.5,2.5 C 12.2469,2.18665 14.9135,2.51998 17.5,3.5C 15.4476,3.70531 13.1143,3.70531 10.5,3.5C 10.7914,9.24829 10.7914,14.915 10.5,20.5C 9.50408,14.5368 9.17075,8.53675 9.5,2.5 Z M 0.5,14.5 C 2.61572,16.0881 2.94905,18.0881 1.5,20.5C 0.534431,18.604 0.201097,16.604 0.5,14.5 Z M 16.5,14.5 C 17.7928,16.3635 17.7928,18.3635 16.5,20.5C 15.3058,18.4844 15.3058,16.4844 16.5,14.5 Z M 25.5,14.5 C 26.7928,16.3635 26.7928,18.3635 25.5,20.5C 24.3058,18.4844 24.3058,16.4844 25.5,14.5 Z"/></g>
</svg>
